<svg xmlns="http://www.w3.org/2000/svg" viewBox="0 0 32 32"><path d="M4.5 31.996a.5.5 0 0 0 .5-.5v-5.523c0-1.093.583-2.123 1.521-2.685l3.914-2.349 2.148 2.685a.502.502 0 0 0 .363.187l.028.001c.132 0 .26-.052.354-.146l.962-.962v.609a.5.5 0 0 0 .5.5h.047l-.834 7.63a.5.5 0 1 0 .994.108l.846-7.738h.314l.846 7.738a.5.5 0 0 0 .995-.108l-.834-7.63h.047a.5.5 0 0 0 .5-.5v-.609l.962.962a.5.5 0 0 0 .354.146l.028-.001a.502.502 0 0 0 .363-.187l2.148-2.685 3.915 2.349A3.15 3.15 0 0 1 27 25.973v5.523a.5.5 0 0 0 1 0v-5.523c0-1.443-.769-2.8-2.006-3.542l-4.226-2.535-1.584-1.76a.489.489 0 0 0-.528-.124v-1.964a5.986 5.986 0 0 0 2.341-4.744V9.032l.965-4.466a3.007 3.007 0 0 0-.503-2.283 3.008 3.008 0 0 0-1.979-1.245L14.522.045a2.975 2.975 0 0 0-2.414.665 2.962 2.962 0 0 0-1.021 1.881c-.59.11-1.124.425-1.509.901a2.55 2.55 0 0 0-.504 2.16l.923 3.37v2.281c0 1.931.92 3.647 2.341 4.745v1.963a.492.492 0 0 0-.523.125l-1.583 1.759-4.226 2.536A4.151 4.151 0 0 0 4 25.973v5.523a.5.5 0 0 0 .5.5zm12.21-10.197v1.013H15.29v-1.013c0-.028-.012-.053-.016-.08l.726-.726.727.727c-.005.026-.017.051-.017.079zm4.082-1.494l-1.807 2.259-2.131-2.131 2.837-1.351 1.101 1.223zM10.355 4.121a1.537 1.537 0 0 1 1.201-.573c.276 0 .5-.291.5-.567a1.973 1.973 0 0 1 1.976-1.977 2 2 0 0 1 .326.027l5.958.993c.54.09 1.01.386 1.325.833.315.448.435.991.34 1.513l-.749 3.465-.944-1.173V5.575a.5.5 0 0 0-.5-.5h-7.582a.5.5 0 0 0-.5.5v1.088l-.983 1.225-.678-2.473c-.097-.458.016-.93.31-1.294zm.642 7.182V9.145l1.6-1.993a.502.502 0 0 0 .11-.313v-.764h6.582v.764a.5.5 0 0 0 .11.313l1.599 1.985v2.165c0 2.757-2.243 5-5 5s-5.001-2.242-5.001-4.999zm5 6c.956 0 1.857-.23 2.659-.629v1.793L16 19.732l-2.662-1.268v-1.791c.803.399 1.704.63 2.659.63zm-3.688 1.779l2.837 1.351-2.131 2.131-1.807-2.259 1.101-1.223z"/><path d="M9.5 31.996a.5.5 0 0 0 .5-.5v-2.342a4.12 4.12 0 0 0-1.081-2.786l-.757-.829a.5.5 0 0 0-.739.675l.757.829A3.12 3.12 0 0 1 9 29.154v2.342a.5.5 0 0 0 .5.5zM23.838 25.539l-.757.83A4.118 4.118 0 0 0 22 29.154v2.342a.5.5 0 0 0 1 0v-2.342c0-.783.291-1.533.819-2.111l.757-.829a.5.5 0 0 0-.738-.675z"/></svg>